# xmcd
# Track frame offsets:
# 150
# 10457
# 20720
# 34285
# 45652
# 54570
# 63720
# 75272
# 85880
# 97650
# 110220
# 121632
# 133147
# 144645
# 156565
# 167982
# 180582
# 193600
# 205317
# 223257
# 245850
#
# Disc length: 3425 seconds
# Revision: 0
# Processed by: cddbd v1.4PL0 Copyright (c) Steve Scherf et al.
# Submitted via: VisiTrax 2.9.5.180 - For more info visit www.synapsa.com
#
DISCID=3a0d5f15
DTITLE=Dick Curless - The drag 'em off the interstate sock it to 'em hits of
DYEAR=1998
DGENRE=
TTITLE0=Travelin' man
TTITLE1=I ain't got nobody
TTITLE2=A tombstone every mile
TTITLE3=Six times a day (the trains came down)
TTITLE4=Nine pound hammer
TTITLE5=Tater raisin man
TTITLE6=The baron
TTITLE7=All of me belongs to you
TTITLE8=Big fool
TTITLE9=Bury the bottle with me
TTITLE10=Big wheel cannonball
TTITLE11=Hard hard travelin' man
TTITLE12=Drag 'em off the interstate sock it to 'em J P blues
TTITLE13=Jukebox man
TTITLE14=Loser's cocktail
TTITLE15=Snap your fingers
TTITLE16=Stonin' around
TTITLE17=Chick inspector (that's where my money goes)
TTITLE18=Evil hearted me
TTITLE19=I'm gotta move to the outskirts of town
TTITLE20=The last blues song
EXTD=
EXTT0=
EXTT1=
EXTT2=
EXTT3=
EXTT4=
EXTT5=
EXTT6=
EXTT7=
EXTT8=
EXTT9=
EXTT10=
EXTT11=
EXTT12=
EXTT13=
EXTT14=
EXTT15=
EXTT16=
EXTT17=
EXTT18=
EXTT19=
EXTT20=
PLAYORDER=
